<?xml version="1.0" encoding="UTF-8"?><svg id="uuid-65a2ed58-e3a5-4a5c-8a30-6cfae988282a" xmlns="http://www.w3.org/2000/svg" width="256" height="256" viewBox="0 0 256 256"><defs><style>.uuid-fe4cf025-5faa-4b1d-b0fb-866775ee1222{fill:#fff;}.uuid-2e503b78-ed45-436c-ba9b-84349b2564bf{fill:#333534;}.uuid-cea59c58-48a5-451c-8b09-02bc09aa7a06{fill:#03dcff;}.uuid-2111845f-1747-4129-a3ee-70c2a542fa0a{fill:#008df2;}</style></defs><path class="uuid-cea59c58-48a5-451c-8b09-02bc09aa7a06" d="M128.05,225.39v-54.26l-53.06-53.14H22.39c-14.15-21.99-11.62-51.57,7.67-70.77,22.15-22.19,58.08-22.19,80.19,0l17.76,17.76h.04l53.06,53.06,27.13,27.13-80.19,80.19v.04Z"/><path class="uuid-2e503b78-ed45-436c-ba9b-84349b2564bf" d="M226,127.45l-97.99,97.99v-54.3l-53.06-53.14,53.02-53.02h.04l17.76-17.76c22.15-22.19,58.08-22.19,80.19,0,22.19,22.15,22.19,58.08,0,80.27l.04-.04Z"/><polygon class="uuid-fe4cf025-5faa-4b1d-b0fb-866775ee1222" points="181.15 117.99 128.05 171.09 74.99 117.99 128.01 64.97 128.05 64.97 128.05 64.89 181.15 117.99"/><path class="uuid-2e503b78-ed45-436c-ba9b-84349b2564bf" d="M128.05,171.09v54.3h-.04L30.03,127.45c-2.9-2.9-5.48-6.1-7.67-9.46h52.6l53.06,53.14.04-.04Z"/><path class="uuid-2111845f-1747-4129-a3ee-70c2a542fa0a" d="M128.05,171.09v54.3h.04l97.99-97.99c2.9-2.9,5.48-6.1,7.67-9.46h-52.6l-53.06,53.14h-.04Z"/></svg>