<?xml version="1.0" standalone="no"?><!DOCTYPE svg PUBLIC "-//W3C//DTD SVG 1.1//EN" "http://www.w3.org/Graphics/SVG/1.1/DTD/svg11.dtd"><svg t="1771368229523" class="icon" viewBox="0 0 1024 1024" version="1.1" xmlns="http://www.w3.org/2000/svg" p-id="7269" xmlns:xlink="http://www.w3.org/1999/xlink" width="64" height="64"><path d="M768 320a128 128 0 0 1 128 128v320a128 128 0 0 1-128 128H448a128 128 0 0 1-128-128h64a64 64 0 0 0 64 64h320a64 64 0 0 0 64-64V448a64 64 0 0 0-64-64v-64z" p-id="7270" fill="#a0a0a0"></path><path d="M256 128h320a128 128 0 0 1 128 128v320a128 128 0 0 1-128 128H256a128 128 0 0 1-128-128V256a128 128 0 0 1 128-128z m0 64a64 64 0 0 0-64 64v320a64 64 0 0 0 64 64h320a64 64 0 0 0 64-64V256a64 64 0 0 0-64-64H256z" p-id="7271" fill="#a0a0a0"></path></svg>