<?xml version="1.0" encoding="UTF-8"?><svg id="uuid-04eead8a-61c4-47f6-8430-585beb99271c" xmlns="http://www.w3.org/2000/svg" width="64" height="64" viewBox="0 0 64 64"><defs><style>.uuid-c8a34e5f-996c-4e42-8b32-98aa52734086{fill:#fff;}.uuid-cbe6045b-8849-4eac-9fcf-6e21a7937068{fill:#333534;}.uuid-9d94eb19-a71c-4ca6-9d2c-c44f0eefb283{fill:#03dcff;}.uuid-65dbee52-8e71-4525-a253-09fd87b4407d{fill:#008df2;}</style></defs><path class="uuid-9d94eb19-a71c-4ca6-9d2c-c44f0eefb283" d="M32.01,55.48v-13.08l-12.79-12.81H6.54c-3.41-5.3-2.8-12.43,1.85-17.06,5.34-5.35,14-5.35,19.33,0l4.28,4.28h.01l12.79,12.79,6.54,6.54-19.33,19.33Z"/><path class="uuid-cbe6045b-8849-4eac-9fcf-6e21a7937068" d="M55.62,31.87l-23.62,23.62v-13.09l-12.79-12.81,12.78-12.78h.01s4.28-4.28,4.28-4.28c5.34-5.35,14-5.35,19.33,0,5.35,5.34,5.35,14,0,19.35Z"/><polygon class="uuid-c8a34e5f-996c-4e42-8b32-98aa52734086" points="44.81 29.59 32.01 42.39 19.22 29.59 32 16.81 32.01 16.81 32.01 16.79 44.81 29.59"/><path class="uuid-cbe6045b-8849-4eac-9fcf-6e21a7937068" d="M32.01,42.39v13.09h-.01L8.38,31.87c-.7-.7-1.32-1.47-1.85-2.28h12.68l12.79,12.81Z"/><path class="uuid-65dbee52-8e71-4525-a253-09fd87b4407d" d="M32.01,42.39v13.09s.01,0,.01,0l23.62-23.62c.7-.7,1.32-1.47,1.85-2.28h-12.68s-12.79,12.81-12.79,12.81Z"/></svg>